ply
format ascii 1.0
element vertex 36
property float x
property float y
property float z
element face 19
property list uchar int vertex_index
end_header
-1.5	 2.60	0
-0.5	 2.60	0
 0	 2.60	0
 0.5	 2.60	0
 1.5	 2.60	0
-2	 1.73	0
-1	 1.73	0
 0	 1.73	0
 1	 1.73	0
 2	 1.73	0
-2.25	 1.30	0
 2.25	 1.30	0
-2.5	 0.87	0
-1.5	 0.87	0
 1.5	 0.87	0
 2.5	 0.87	0
-3	 0   	0
-2	 0   	0
 2	 0   	0
 3	 0   	0
-2.5	-0.87	0
-1.5	-0.87	0
 1.5	-0.87	0
 2.5	-0.87	0
-2.25	-1.30	0
 2.25	-1.30	0
-2	-1.73	0
-1	-1.73	0
 0	-1.73	0
 1	-1.73	0
 2	-1.73	0
-1.5	-2.60	0
-0.5	-2.60	0
 0	-2.60	0
 0.5	-2.60	0
 1.5	-2.60	0
4 5 6 1 0
4 1 6 7 2
4 2 7 8 3
4 3 8 9 4
4 5 10 13 6
4 9 8 14 11
4 10 12 17 13
4 14 18 15 11
4 12 16 20 17
4 15 18 23 19
4 17 20 24 21
4 23 18 22 25
4 21 24 26 27
4 27 26 31 32
4 27 32 33 28
4 28 33 34 29
4 29 34 35 30
4 25 22 29 30
6 8 6 17 27 29 18
