ply
format ascii 1.0
element vertex 36
property float x
property float y
property float z
element face 13
property list uchar int vertex_index
end_header
-1.5	 2.60	-1
-0.5	 2.60	-1
 0	 2.60	 0
 0.5	 2.60	-1
 1.5	 2.60	-1
-2	 1.73	-1
-1	 1.73	 0
 0	 1.73	 0
 1	 1.73	 0
 2	 1.73	-1
-2.25	 1.30	-1
 2.25	 1.30	-1
-2.5	 0.87	-1
-1.5	 0.87	-1
 1.5	 0.87	-1
 2.5	 0.87	-1
-3	 0   	-1
-2	 0   	 0
 2	 0   	 0
 3	 0   	-1
-2.5	-0.87	-1
-1.5	-0.87	 0
 1.5	-0.87	 0
 2.5	-0.87	-1
-2.25	-1.30	 0
 2.25	-1.30	 0
-2	-1.73	-1 
-1	-1.73	 0
 0	-1.73	 0
 1	-1.73	 0
 2	-1.73	-1
-1.5	-2.60	-1
-0.5	-2.60	-1
 0	-2.60	 0
 0.5	-2.60	-1
 1.5	-2.60	-1
4 5 6 1 0
4 1 6 8 3
4 3 8 9 4
4 6 5 12 17
4 9 8 18 15
4 12 16 20 17
4 15 18 23 19
4 17 20 26 27
4 23 18 29 30
4 27 26 31 32
4 27 32 34 29
4 29 34 35 30
6 8 6 17 27 29 18
