ply
format ascii 1.0
element vertex 36
property float x
property float y
property float z
element face 19
property list uchar int vertex_index
end_header
 0	 6.93	0
-1	 5.20 	0
 1	 5.20 	0
-6	 3.46 	0
-4	 3.46 	0
-2	 3.46 	0
 0	 3.46 	0
 2	 3.46 	0
 4	 3.46 	0
 6	 3.46 	0
-5	 1.73 	0
-3	 1.73 	0
-1	 1.73 	0
 1	 1.73 	0
 3	 1.73 	0
 5	 1.73 	0
-4	 0    	0
-2	 0    	0
 2	 0    	0
 4	 0    	0
-5	-1.73 	0
-3	-1.73 	0
-1	-1.73 	0
 1	-1.73 	0
 3	-1.73 	0
 5	-1.73 	0
-6	-3.46 	0
-4	-3.46 	0
-2	-3.46 	0
 0	-3.46 	0
 2	-3.46 	0
 4	-3.46 	0
 6	-3.46 	0
-1	-5.20 	0
 1	-5.20 	0
 0	-6.93 	0
4 0 1 6 2
4 1 5 12 6
4 5 4 11 12
4 4 3 10 11
4 11 10 16 17
4 17 16 20 21
4 21 20 26 27
4 22 21 27 28
4 29 22 28 33
4 29 33 35 34
4 29 34 30 23
4 23 30 31 24
4 24 31 32 25
4 24 25 19 18
4 18 19 15 14
4 14 15 9 8
4 14 8 7 13
4 13 7 2 6
12 13 6 12 11 17 21 22 29 23 24 18 14
