ply
format ascii 1.0
comment VCGLIB generated
element vertex 12
property float x
property float y
property float z
element face 20
property list uchar int vertex_indices
end_header
0 -0.525731 0.850651 
0.850651 0 0.525731 
0.850651 0 -0.525731 
-0.850651 0 -0.525731 
-0.850651 0 0.525731 
-0.525731 0.850651 0 
0.525731 0.850651 0 
0.525731 -0.850651 0 
-0.525731 -0.850651 0 
0 -0.525731 -0.850651 
0 0.525731 -0.850651 
0 0.525731 0.850651 
3 2 6 1 
3 7 2 1 
3 4 5 3 
3 3 8 4 
3 5 11 6 
3 6 10 5 
3 10 2 9 
3 9 3 10 
3 8 9 7 
3 7 0 8 
3 0 1 11 
3 11 4 0 
3 2 10 6 
3 6 11 1 
3 5 10 3 
3 4 11 5 
3 7 9 2 
3 1 0 7 
3 9 8 3 
3 8 0 4 
